<svg version="1.0" xmlns="http://www.w3.org/2000/svg"
 viewBox="0 0 470.000000 439.000000"
 preserveAspectRatio="xMidYMid meet">

<g transform="translate(0.000000,439.000000) scale(0.100000,-0.100000)" stroke="none">
<path d="M2120 4354 c-14 -2 -65 -9 -115 -15 -273 -33 -588 -130 -849 -261
-331 -166 -657 -444 -791 -673 -86 -147 -64 -326 57 -447 l59 -59 -39 -43
c-83 -90 -128 -207 -119 -306 5 -54 33 -127 64 -162 8 -9 12 -21 9 -26 -3 -5
-70 -47 -148 -92 -173 -101 -206 -125 -219 -157 -11 -29 25 -421 43 -467 12
-29 69 -62 92 -53 8 3 11 -15 11 -57 0 -78 26 -116 114 -166 50 -28 60 -39 56
-55 -36 -133 -38 -145 -26 -201 7 -30 26 -80 41 -110 l29 -54 -33 0 -34 0 -7
-163 c-8 -186 0 -243 46 -336 116 -233 509 -363 1269 -422 223 -17 987 -23
1255 -10 545 27 924 88 1171 190 129 53 197 95 268 166 114 113 146 207 146
433 l0 142 -31 0 c-26 0 -30 3 -23 17 40 91 57 163 56 238 -1 44 -3 90 -4 103
-3 19 6 26 55 46 196 81 213 230 38 334 l-34 21 35 14 c65 27 68 39 68 253 0
234 4 225 -140 279 -55 21 -100 40 -100 41 0 2 15 32 34 66 105 192 84 354
-65 499 l-68 67 21 18 c42 37 95 132 108 193 25 121 0 212 -96 339 -272 361
-772 673 -1284 801 -243 61 -340 73 -630 76 -146 2 -276 2 -290 -1z m555 -185
c521 -60 1032 -296 1370 -634 116 -115 188 -212 204 -272 22 -83 -25 -179
-105 -214 -41 -19 -95 -19 -1781 -17 l-1739 3 -42 28 c-23 15 -51 45 -62 67
-25 48 -26 129 -4 173 29 56 105 149 194 237 371 370 939 608 1535 644 87 5
325 -3 430 -15z m-1065 -1571 l854 -243 -879 -3 -880 -2 -69 47 c-161 110
-163 218 -7 374 53 53 76 69 97 69 16 0 414 -109 884 -242z m2123 219 c-10
-13 -101 -123 -202 -245 l-184 -222 -106 0 -106 0 -845 241 c-465 133 -847
243 -849 245 -2 2 516 4 1153 4 l1157 0 -18 -23z m385 -6 c75 -38 131 -83 165
-133 52 -78 30 -195 -56 -292 l-32 -37 -306 3 -306 3 201 243 c198 238 201
242 239 242 22 0 62 -12 95 -29z m-3505 -611 l54 -30 1224 0 1224 0 111 -34
c101 -30 114 -32 143 -20 17 7 34 20 37 29 5 13 56 15 413 15 l406 0 105 -43
105 -44 3 -100 3 -100 -108 -28 c-59 -15 -111 -28 -114 -29 -4 0 -75 43 -159
97 -84 54 -165 100 -180 103 -38 8 -57 -4 -179 -114 -58 -53 -116 -104 -127
-115 -21 -18 -23 -17 -213 77 -105 53 -203 96 -218 96 -20 0 -76 -36 -199
-129 l-171 -130 -289 100 c-202 70 -296 98 -314 94 -14 -3 -62 -43 -107 -87
l-81 -81 -300 82 c-165 44 -318 81 -340 81 -38 0 -45 -5 -118 -87 -43 -49 -80
-90 -81 -92 -1 -2 -92 37 -202 88 -125 57 -212 91 -233 91 -18 0 -132 -23
-252 -50 -120 -28 -221 -48 -225 -45 -3 3 -11 56 -17 118 -9 85 -9 114 -1 119
7 4 84 50 172 102 88 53 163 96 168 96 4 0 31 -13 60 -30z m3432 -485 c147
-93 159 -96 252 -69 33 10 58 12 62 7 3 -5 45 -28 93 -51 48 -23 92 -51 98
-62 30 -56 -139 -132 -395 -177 -78 -14 -158 -17 -370 -18 -237 0 -285 3 -394
23 -69 12 -126 24 -129 26 -2 3 8 20 22 39 71 93 26 204 -109 269 -25 12 -45
25 -45 28 0 3 9 11 20 17 17 11 46 0 222 -88 174 -86 207 -99 228 -91 14 5 84
62 155 126 72 64 136 114 142 111 7 -2 73 -43 148 -90z m-3112 -105 c117 -55
226 -100 241 -100 30 0 63 29 161 142 l50 57 70 -20 c39 -10 87 -24 107 -30
l38 -10 -31 -42 c-27 -37 -30 -48 -27 -93 3 -33 12 -61 26 -79 12 -15 22 -31
22 -35 0 -10 -145 -38 -270 -51 -143 -16 -506 -6 -630 16 -117 21 -247 58
-303 86 -43 22 -87 57 -87 69 0 4 14 24 30 45 17 21 29 44 26 51 -3 9 44 24
157 52 89 22 172 40 184 41 12 1 118 -44 236 -99z m1545 1 c220 -77 240 -86
222 -98 -37 -26 -20 -83 26 -83 30 0 48 24 40 56 -6 22 -4 25 14 19 11 -4 34
1 52 9 17 9 32 15 32 14 14 -41 55 -60 82 -38 20 18 17 58 -5 72 -18 11 -17
14 21 42 l40 29 52 -16 c62 -20 146 -71 146 -90 0 -53 -178 -125 -400 -162
-129 -22 -467 -31 -611 -16 -230 24 -436 81 -501 140 -27 24 -29 30 -19 49 6
12 30 31 52 43 40 20 43 20 105 3 61 -16 63 -18 48 -35 -23 -25 -11 -67 21
-75 35 -9 58 13 52 49 -3 26 -2 28 22 21 62 -18 80 -10 165 75 44 45 86 80 91
79 6 -2 120 -41 253 -87z m727 -322 c153 -48 295 -63 575 -63 204 -1 292 4
384 17 77 12 122 15 129 8 5 -5 8 -43 6 -84 -3 -58 -11 -87 -34 -133 -28 -53
-34 -59 -70 -65 -107 -18 -1240 -32 -2137 -25 -1095 7 -1378 15 -1424 39 -41
21 -102 90 -110 124 -3 16 -7 33 -9 40 -2 7 3 36 11 64 l15 51 37 -6 c190 -33
262 -39 477 -39 258 -1 391 13 585 64 88 23 121 27 140 20 50 -20 187 -50 305
-67 166 -25 524 -25 690 0 133 19 226 40 294 67 25 10 53 16 61 12 8 -3 42
-14 75 -24z m1092 -600 c-11 -125 -80 -212 -225 -287 -233 -120 -604 -184
-1232 -213 -278 -13 -925 -7 -1170 11 -680 48 -1043 155 -1137 333 -11 21 -18
64 -21 125 l-4 92 1897 0 1898 0 -6 -61z"/>
<path d="M2122 4008 c-7 -7 -12 -25 -12 -40 0 -54 82 -57 88 -4 2 15 -2 34 -9
42 -14 17 -51 18 -67 2z"/>
<path d="M2452 4008 c-7 -7 -12 -25 -12 -40 0 -54 82 -57 88 -4 2 15 -2 34 -9
42 -14 17 -51 18 -67 2z"/>
<path d="M2913 3949 c-17 -6 -23 -16 -23 -37 0 -34 16 -52 46 -52 29 0 46 23
42 56 -3 31 -32 45 -65 33z"/>
<path d="M1680 3900 c-33 -33 -12 -79 36 -80 26 0 44 18 44 45 -1 47 -47 68
-80 35z"/>
<path d="M1940 3799 c-19 -34 2 -69 40 -69 59 0 61 82 2 88 -23 2 -34 -2 -42
-19z"/>
<path d="M3230 3789 c-25 -47 15 -93 60 -69 23 12 28 58 8 78 -19 19 -56 14
-68 -9z"/>
<path d="M2624 3775 c-34 -52 29 -103 68 -55 23 28 23 35 -2 60 -27 27 -46 25
-66 -5z"/>
<path d="M1346 3754 c-22 -21 -20 -47 4 -69 40 -37 95 19 63 64 -17 25 -46 27
-67 5z"/>
<path d="M2306 3654 c-23 -23 -20 -51 9 -70 23 -15 27 -15 50 0 27 18 31 36
15 67 -13 23 -53 25 -74 3z"/>
<path d="M4242 1558 c-28 -28 -7 -78 33 -78 27 0 45 18 45 45 0 27 -18 45 -45
45 -12 0 -26 -5 -33 -12z"/>
<path d="M3426 1504 c-30 -30 -13 -74 29 -74 27 0 45 18 45 45 0 42 -44 59
-74 29z"/>
<path d="M4052 1508 c-28 -28 -7 -78 33 -78 42 0 59 44 29 74 -18 19 -45 21
-62 4z"/>
<path d="M3626 1479 c-24 -34 -3 -69 42 -69 14 0 26 9 34 25 9 21 8 28 -7 45
-23 26 -50 25 -69 -1z"/>
<path d="M3832 1488 c-28 -28 -7 -78 33 -78 27 0 45 18 45 45 0 27 -18 45 -45
45 -12 0 -26 -5 -33 -12z"/>
<path d="M500 1555 c-31 -38 27 -96 65 -65 18 15 20 51 3 68 -17 17 -53 15
-68 -3z"/>
<path d="M695 1500 c-15 -17 -16 -24 -7 -45 16 -34 69 -36 81 -2 19 48 -39 86
-74 47z"/>
<path d="M1332 1508 c-7 -7 -12 -21 -12 -33 0 -12 5 -26 12 -33 27 -27 78 -7
78 29 0 39 -52 63 -78 37z"/>
<path d="M905 1476 c-23 -34 -5 -66 36 -66 41 0 61 40 34 70 -24 27 -51 25
-70 -4z"/>
<path d="M1112 1488 c-28 -28 -7 -78 33 -78 12 0 26 5 33 12 7 7 12 21 12 33
0 12 -5 26 -12 33 -7 7 -21 12 -33 12 -12 0 -26 -5 -33 -12z"/>
<path d="M2068 1509 c-36 -21 -16 -79 27 -79 12 0 26 5 33 12 7 7 12 21 12 33
0 40 -35 56 -72 34z"/>
<path d="M2265 1476 c-23 -34 -5 -66 36 -66 41 0 61 40 34 70 -24 27 -51 25
-70 -4z"/>
<path d="M2472 1488 c-7 -7 -12 -21 -12 -33 0 -12 5 -26 12 -33 7 -7 21 -12
33 -12 12 0 26 5 33 12 7 7 12 21 12 33 0 12 -5 26 -12 33 -7 7 -21 12 -33 12
-12 0 -26 -5 -33 -12z"/>
</g>
</svg>
